<svg width="25" height="24" viewBox="0 0 25 24" fill="none" xmlns="http://www.w3.org/2000/svg">
<path d="M19.291 19.0731H16.284V14.3641C16.284 13.2411 16.264 11.7961 14.72 11.7961C13.154 11.7961 12.914 13.0191 12.914 14.2831V19.0731H9.908V9.38912H12.795V10.7121H12.835C13.424 9.70612 14.518 9.10512 15.683 9.14812C18.731 9.14812 19.292 11.1531 19.292 13.7601L19.291 19.0731ZM6.515 8.06512C5.551 8.06512 4.77 7.28412 4.77 6.32012C4.77 5.35612 5.551 4.57512 6.515 4.57512C7.479 4.57512 8.26 5.35612 8.26 6.32012C8.26 7.28412 7.479 8.06512 6.515 8.06512ZM8.018 19.0731H5.008V9.38912H8.018V19.0731ZM20.79 1.78312H3.497C2.68 1.77412 2.01 2.42912 2 3.24612V20.6101C2.01 21.4281 2.68 22.0831 3.497 22.0741H20.79C21.609 22.0841 22.282 21.4291 22.293 20.6101V3.24512C22.281 2.42612 21.608 1.77112 20.79 1.78212" fill="#4318FF"/>
</svg>
