<svg width="25" height="24" viewBox="0 0 25 24" fill="none" xmlns="http://www.w3.org/2000/svg">
<path d="M22.1602 10.44L21.1802 14.62C20.3402 18.23 18.6802 19.69 15.5602 19.39C15.0602 19.35 14.5202 19.26 13.9402 19.12L12.2602 18.72C8.09018 17.73 6.80018 15.67 7.78018 11.49L8.76018 7.30001C8.96018 6.45001 9.20018 5.71001 9.50018 5.10001C10.6702 2.68001 12.6602 2.03001 16.0002 2.82001L17.6702 3.21001C21.8602 4.19001 23.1402 6.26001 22.1602 10.44Z" stroke="#4318FF" stroke-width="1.5" stroke-linecap="round" stroke-linejoin="round"/>
<path d="M15.5599 19.39C14.9399 19.81 14.1599 20.16 13.2099 20.47L11.6299 20.99C7.65985 22.27 5.56985 21.2 4.27985 17.23L2.99985 13.28C1.71985 9.31001 2.77985 7.21001 6.74985 5.93001L8.32985 5.41001C8.73985 5.28001 9.12985 5.17001 9.49985 5.10001C9.19985 5.71001 8.95985 6.45001 8.75985 7.30001L7.77985 11.49C6.79985 15.67 8.08985 17.73 12.2599 18.72L13.9399 19.12C14.5199 19.26 15.0599 19.35 15.5599 19.39Z" stroke="#4318FF" stroke-width="1.5" stroke-linecap="round" stroke-linejoin="round"/>
<path d="M13.1401 8.53L17.9901 9.76" stroke="#4318FF" stroke-width="1.5" stroke-linecap="round" stroke-linejoin="round"/>
<path d="M12.1602 12.4L15.0602 13.14" stroke="#4318FF" stroke-width="1.5" stroke-linecap="round" stroke-linejoin="round"/>
</svg>
